####
#
# OBJ File Generated by Meshlab
#
####
# Object ring_small.obj
#
# Vertices: 226
# Faces: 452
#
####
vn 5.1942322537301333 0.8667374500299380 -2.1351466873974663
v 0.0335854813456535 0.0056043858639896 -0.0082499980926514
vn 5.2659694859098067 -0.0000147571146708 2.1351774551990479
v 0.0340499207377434 0.0000000000000000 0.0082499980926514
vn 5.2659694859098067 0.0000147571146708 -2.1351774551990479
v 0.0340499207377434 0.0000000000000000 -0.0082499980926514
vn 5.1942322537301333 -0.8667374500299381 2.1351466873974663
v 0.0335854813456535 -0.0056043858639896 0.0082499980926514
vn 5.1942304450806107 -0.8667632124577609 -2.1351445463930205
v 0.0335854813456535 -0.0056043858639896 -0.0082499980926514
vn 4.9806350615641497 -1.7098741523516885 2.1351648667590033
v 0.0322050414979458 -0.0110559398308396 0.0082499980926514
vn 4.9806423213240025 -1.7098533216317349 -2.1351647772844959
v 0.0322050414979458 -0.0110559398308396 -0.0082499980926514
vn 4.6313548140382501 -2.5063627787027318 2.1351508400572130
v 0.0299459602683783 -0.0162058994174004 0.0082499980926514
vn 4.6313471871339935 -2.5063807036039378 -2.1351492504436598
v 0.0299459602683783 -0.0162058994174004 -0.0082499980926514
vn 4.1556404391020703 -3.2344154505036293 2.1351606910961722
v 0.0268701892346144 -0.0209138300269842 0.0082499980926514
vn 4.1556401810076879 -3.2344060220904662 -2.1351659161276704
v 0.0268701892346144 -0.0209138300269842 -0.0082499980926514
vn 3.5665942732285951 -3.8742895469310961 2.1351751507002330
v 0.0230613891035318 -0.0250513497740030 0.0082499980926514
vn 3.5665878645272047 -3.8742895491769302 -2.1351789324902186
v 0.0230613891035318 -0.0250513497740030 -0.0082499980926514
vn 2.8802025787647163 -4.4084806412939894 2.1351884023707415
v 0.0186235904693604 -0.0285055004060268 0.0082499980926514
vn 2.8802147186078160 -4.4084743708589365 -2.1351871904598076
v 0.0186235904693604 -0.0285055004060268 -0.0082499980926514
vn 2.1152887842557093 -4.8224783323669405 2.1351686247191854
v 0.0136776501312852 -0.0311820507049561 0.0082499980926514
vn 2.1152957086548154 -4.8224880986473995 -2.1351584048727492
v 0.0136776501312852 -0.0311820507049561 -0.0082499980926514
vn 1.2927394705977384 -5.1049199141310089 2.1351271284361810
v 0.0083587756380439 -0.0330079682171345 0.0082499980926514
vn 1.2927249503416853 -5.1049267993457192 -2.1351244175548145
v 0.0083587756380439 -0.0330079682171345 -0.0082499980926514
vn 0.4348662354827829 -5.2480414225630918 2.1351377813802732
v 0.0028117289766669 -0.0339336283504963 0.0082499980926514
vn 0.4348713988394248 -5.2480374496119460 -2.1351408608410662
v 0.0028117289766669 -0.0339336283504963 -0.0082499980926514
vn -0.4348713988394248 -5.2480374496119460 2.1351408608410662
v -0.0028117289766669 -0.0339336283504963 0.0082499980926514
vn -0.4348662354827829 -5.2480414225630918 -2.1351377813802732
v -0.0028117289766669 -0.0339336283504963 -0.0082499980926514
vn -1.2927249503416851 -5.1049267993457192 2.1351244175548145
v -0.0083587756380439 -0.0330079682171345 0.0082499980926514
vn -1.2927394705977384 -5.1049199141310089 -2.1351271284361810
v -0.0083587756380439 -0.0330079682171345 -0.0082499980926514
vn -2.1152957086548154 -4.8224880986473995 2.1351584048727492
v -0.0136776501312852 -0.0311820507049561 0.0082499980926514
vn -2.1152887842557093 -4.8224783323669405 -2.1351686247191854
v -0.0136776501312852 -0.0311820507049561 -0.0082499980926514
vn -2.8802147186078160 -4.4084743708589365 2.1351871904598076
v -0.0186235904693604 -0.0285055004060268 0.0082499980926514
vn -2.8802025787647163 -4.4084806412939894 -2.1351884023707415
v -0.0186235904693604 -0.0285055004060268 -0.0082499980926514
vn -3.5665878645272047 -3.8742895491769302 2.1351789324902186
v -0.0230613891035318 -0.0250513497740030 0.0082499980926514
vn -3.5665942732285951 -3.8742895469310961 -2.1351751507002330
v -0.0230613891035318 -0.0250513497740030 -0.0082499980926514
vn -4.1556401810076879 -3.2344060220904662 2.1351659161276704
v -0.0268701892346144 -0.0209138300269842 0.0082499980926514
vn -4.1556404391020703 -3.2344154505036293 -2.1351606910961722
v -0.0268701892346144 -0.0209138300269842 -0.0082499980926514
vn -4.6313471871339935 -2.5063807036039378 2.1351492504436598
v -0.0299459602683783 -0.0162058994174004 0.0082499980926514
vn -4.6313548140382501 -2.5063627787027318 -2.1351508400572130
v -0.0299459602683783 -0.0162058994174004 -0.0082499980926514
vn -4.9806423213240025 -1.7098533216317349 2.1351647772844959
v -0.0322050414979458 -0.0110559398308396 0.0082499980926514
vn -4.9806350615641497 -1.7098741523516883 -2.1351648667590033
v -0.0322050414979458 -0.0110559398308396 -0.0082499980926514
vn -5.1942304450806107 -0.8667632124577609 2.1351445463930205
v -0.0335854813456535 -0.0056043858639896 0.0082499980926514
vn -5.1942322537301333 -0.8667374500299381 -2.1351466873974663
v -0.0335854813456535 -0.0056043858639896 -0.0082499980926514
vn -5.2659694859098067 0.0000147571146708 2.1351774551990479
v -0.0340499207377434 0.0000000000000000 0.0082499980926514
vn -5.2659694859098067 -0.0000147571146708 -2.1351774551990479
v -0.0340499207377434 0.0000000000000000 -0.0082499980926514
vn -5.1942322537301333 0.8667374500299380 2.1351466873974663
v -0.0335854813456535 0.0056043858639896 0.0082499980926514
vn -5.1942304450806107 0.8667632124577609 -2.1351445463930205
v -0.0335854813456535 0.0056043858639896 -0.0082499980926514
vn -4.9806350615641497 1.7098741523516885 2.1351648667590033
v -0.0322050414979458 0.0110559398308396 0.0082499980926514
vn -4.9806423213240025 1.7098533216317349 -2.1351647772844959
v -0.0322050414979458 0.0110559398308396 -0.0082499980926514
vn -4.6313548140382501 2.5063627787027318 2.1351508400572130
v -0.0299459602683783 0.0162058994174004 0.0082499980926514
vn -4.6313471871339935 2.5063807036039378 -2.1351492504436598
v -0.0299459602683783 0.0162058994174004 -0.0082499980926514
vn -4.1556404391020703 3.2344154505036293 2.1351606910961722
v -0.0268701892346144 0.0209138300269842 0.0082499980926514
vn -4.1556401810076879 3.2344060220904662 -2.1351659161276704
v -0.0268701892346144 0.0209138300269842 -0.0082499980926514
vn -3.5665942732285951 3.8742895469310961 2.1351751507002330
v -0.0230613891035318 0.0250513497740030 0.0082499980926514
vn -3.5665878645272047 3.8742895491769302 -2.1351789324902186
v -0.0230613891035318 0.0250513497740030 -0.0082499980926514
vn -2.8802025787647163 4.4084806412939894 2.1351884023707415
v -0.0186235904693604 0.0285055004060268 0.0082499980926514
vn -2.8802147186078160 4.4084743708589365 -2.1351871904598076
v -0.0186235904693604 0.0285055004060268 -0.0082499980926514
vn -2.1152887842557093 4.8224783323669405 2.1351686247191854
v -0.0136776501312852 0.0311820507049561 0.0082499980926514
vn -2.1152957086548154 4.8224880986473995 -2.1351584048727492
v -0.0136776501312852 0.0311820507049561 -0.0082499980926514
vn -1.2927394705977384 5.1049199141310089 2.1351271284361810
v -0.0083587756380439 0.0330079682171345 0.0082499980926514
vn -1.2927249503416853 5.1049267993457192 -2.1351244175548145
v -0.0083587756380439 0.0330079682171345 -0.0082499980926514
vn -0.4348662354827829 5.2480414225630918 2.1351377813802732
v -0.0028117289766669 0.0339336283504963 0.0082499980926514
vn -0.4348713988394248 5.2480374496119460 -2.1351408608410662
v -0.0028117289766669 0.0339336283504963 -0.0082499980926514
vn 0.4348713988394248 5.2480374496119460 2.1351408608410662
v 0.0028117289766669 0.0339336283504963 0.0082499980926514
vn 0.4348662354827829 5.2480414225630918 -2.1351377813802732
v 0.0028117289766669 0.0339336283504963 -0.0082499980926514
vn 1.2927249503416851 5.1049267993457192 2.1351244175548145
v 0.0083587756380439 0.0330079682171345 0.0082499980926514
vn 1.2927394705977384 5.1049199141310089 -2.1351271284361810
v 0.0083587756380439 0.0330079682171345 -0.0082499980926514
vn 2.1152957086548154 4.8224880986473995 2.1351584048727492
v 0.0136776501312852 0.0311820507049561 0.0082499980926514
vn 2.1152887842557093 4.8224783323669405 -2.1351686247191854
v 0.0136776501312852 0.0311820507049561 -0.0082499980926514
vn 2.8802147186078160 4.4084743708589365 2.1351871904598076
v 0.0186235904693604 0.0285055004060268 0.0082499980926514
vn 2.8802025787647163 4.4084806412939894 -2.1351884023707415
v 0.0186235904693604 0.0285055004060268 -0.0082499980926514
vn 3.5665878645272047 3.8742895491769302 2.1351789324902186
v 0.0230613891035318 0.0250513497740030 0.0082499980926514
vn 3.5665942732285951 3.8742895469310961 -2.1351751507002330
v 0.0230613891035318 0.0250513497740030 -0.0082499980926514
vn 4.1556401810076879 3.2344060220904662 2.1351659161276704
v 0.0268701892346144 0.0209138300269842 0.0082499980926514
vn 4.1556404391020703 3.2344154505036293 -2.1351606910961722
v 0.0268701892346144 0.0209138300269842 -0.0082499980926514
vn 4.6313471871339935 2.5063807036039378 2.1351492504436598
v 0.0299459602683783 0.0162058994174004 0.0082499980926514
vn 4.6313548140382501 2.5063627787027318 -2.1351508400572130
v 0.0299459602683783 0.0162058994174004 -0.0082499980926514
vn 4.9806423213240025 1.7098533216317349 2.1351647772844959
v 0.0322050414979458 0.0110559398308396 0.0082499980926514
vn 4.9806350615641497 1.7098741523516883 -2.1351648667590033
v 0.0322050414979458 0.0110559398308396 -0.0082499980926514
vn 5.1942304450806107 0.8667632124577609 2.1351445463930205
v 0.0335854813456535 0.0056043858639896 0.0082499980926514
vn -2.2687842354158474 0.3785628062618116 5.2763388274069785
v -0.0321060381829739 0.0053574438206851 0.0097499480471015
vn -2.1754637131534862 0.7468516290455951 5.2763998635716298
v -0.0307863298803568 0.0105688497424126 0.0097499480471015
vn -2.0229165600371428 1.0947432702697271 5.2763483112061556
v -0.0286267902702093 0.0154920797795057 0.0097499480471015
vn -1.8151108692608000 1.4127467997320489 5.2763888989344050
v -0.0256865005940199 0.0199925303459167 0.0097499480471015
vn -1.5578277763620640 1.6922252114873606 5.2763950581466501
v -0.0220454894006252 0.0239477697759867 0.0097499480471015
vn -1.2580165754180710 1.9255500364036260 5.2764190847827166
v -0.0178031306713820 0.0272497497498989 0.0097499480471015
vn -0.9239432094867061 2.1063858166943219 5.2763760898431453
v -0.0130751701071858 0.0298084001988173 0.0097499480471015
vn -0.5646624621588674 2.2297790199294916 5.2763231296850170
v -0.0079905390739441 0.0315539799630642 0.0097499480471015
vn -0.1899435010346325 2.2922763359772542 5.2763585120073087
v -0.0026879310607910 0.0324388109147549 0.0097499480471015
vn 0.1899503607602195 2.2922789631367237 5.2763547788041167
v 0.0026879310607910 0.0324388109147549 0.0097499480471015
vn 0.5646432931169164 2.2297809831327493 5.2763264150836751
v 0.0079905390739441 0.0315539799630642 0.0097499480471015
vn 0.9239416414149915 2.1063749645051382 5.2763884778849084
v 0.0130751701071858 0.0298084001988173 0.0097499480471015
vn 1.2580296501205839 1.9255399967814899 5.2764205542668741
v 0.0178031306713820 0.0272497497498989 0.0097499480471015
vn 1.5578262290302325 1.6922319512978694 5.2763904740830254
v 0.0220454894006252 0.0239477697759867 0.0097499480471015
vn 1.8151205415301030 1.4127431696402095 5.2763825652507270
v 0.0256865005940199 0.0199925303459167 0.0097499480471015
vn 2.0229039538239517 1.0947631135270270 5.2763502365706119
v 0.0286267902702093 0.0154920797795057 0.0097499480471015
vn 2.1754722877940349 0.7468263696537072 5.2763999710658975
v 0.0307863298803568 0.0105688497424126 0.0097499480471015
vn 2.2687769333985601 0.3785931051479297 5.2763414245713651
v 0.0321060381829739 0.0053574438206851 0.0097499480471015
vn 2.2687842354158474 -0.3785628062618116 5.2763388274069776
v 0.0321060381829739 -0.0053574438206851 0.0097499480471015
vn 2.1754637131534862 -0.7468516290455951 5.2763998635716298
v 0.0307863298803568 -0.0105688497424126 0.0097499480471015
vn 2.0229165600371428 -1.0947432702697271 5.2763483112061564
v 0.0286267902702093 -0.0154920797795057 0.0097499480471015
vn 1.8151108692608000 -1.4127467997320489 5.2763888989344050
v 0.0256865005940199 -0.0199925303459167 0.0097499480471015
vn 1.5578277763620640 -1.6922252114873606 5.2763950581466492
v 0.0220454894006252 -0.0239477697759867 0.0097499480471015
vn 1.2580165754180710 -1.9255500364036260 5.2764190847827166
v 0.0178031306713820 -0.0272497497498989 0.0097499480471015
vn 0.9239432094867061 -2.1063858166943219 5.2763760898431471
v 0.0130751701071858 -0.0298084001988173 0.0097499480471015
vn 0.5646624621588674 -2.2297790199294916 5.2763231296850188
v 0.0079905390739441 -0.0315539799630642 0.0097499480471015
vn 0.1899435010346325 -2.2922763359772542 5.2763585120073087
v 0.0026879310607910 -0.0324388109147549 0.0097499480471015
vn -0.1899503607602195 -2.2922789631367237 5.2763547788041176
v -0.0026879310607910 -0.0324388109147549 0.0097499480471015
vn -0.5646432931169164 -2.2297809831327493 5.2763264150836768
v -0.0079905390739441 -0.0315539799630642 0.0097499480471015
vn -0.9239416414149915 -2.1063749645051382 5.2763884778849084
v -0.0130751701071858 -0.0298084001988173 0.0097499480471015
vn -1.2580296501205839 -1.9255399967814899 5.2764205542668741
v -0.0178031306713820 -0.0272497497498989 0.0097499480471015
vn -1.5578262290302325 -1.6922319512978694 5.2763904740830245
v -0.0220454894006252 -0.0239477697759867 0.0097499480471015
vn -1.8151205415301030 -1.4127431696402095 5.2763825652507261
v -0.0256865005940199 -0.0199925303459167 0.0097499480471015
vn -2.0229039538239517 -1.0947631135270270 5.2763502365706119
v -0.0286267902702093 -0.0154920797795057 0.0097499480471015
vn -2.1754722877940349 -0.7468263696537072 5.2763999710658975
v -0.0307863298803568 -0.0105688497424126 0.0097499480471015
vn -2.2687769333985601 -0.3785931051479297 5.2763414245713642
v -0.0321060381829739 -0.0053574438206851 0.0097499480471015
vn -2.3000771822288990 0.0000178446742305 5.2764186807002789
v -0.0325499102473259 0.0000000000000000 0.0097499480471015
vn 2.2687842354158474 0.3785628062618116 -5.2763388274069776
v 0.0321060381829739 0.0053574438206851 -0.0097499480471015
vn 2.1754637131534862 0.7468516290455951 -5.2763998635716298
v 0.0307863298803568 0.0105688497424126 -0.0097499480471015
vn 2.0229165600371428 1.0947432702697271 -5.2763483112061564
v 0.0286267902702093 0.0154920797795057 -0.0097499480471015
vn 1.8151108692608000 1.4127467997320489 -5.2763888989344050
v 0.0256865005940199 0.0199925303459167 -0.0097499480471015
vn 1.5578277763620640 1.6922252114873606 -5.2763950581466492
v 0.0220454894006252 0.0239477697759867 -0.0097499480471015
vn 1.2580165754180710 1.9255500364036260 -5.2764190847827166
v 0.0178031306713820 0.0272497497498989 -0.0097499480471015
vn 0.9239432094867061 2.1063858166943219 -5.2763760898431471
v 0.0130751701071858 0.0298084001988173 -0.0097499480471015
vn 0.5646624621588674 2.2297790199294916 -5.2763231296850188
v 0.0079905390739441 0.0315539799630642 -0.0097499480471015
vn 0.1899435010346325 2.2922763359772542 -5.2763585120073087
v 0.0026879310607910 0.0324388109147549 -0.0097499480471015
vn -0.1899503607602195 2.2922789631367237 -5.2763547788041176
v -0.0026879310607910 0.0324388109147549 -0.0097499480471015
vn -0.5646432931169164 2.2297809831327493 -5.2763264150836768
v -0.0079905390739441 0.0315539799630642 -0.0097499480471015
vn -0.9239416414149915 2.1063749645051382 -5.2763884778849084
v -0.0130751701071858 0.0298084001988173 -0.0097499480471015
vn -1.2580296501205839 1.9255399967814899 -5.2764205542668741
v -0.0178031306713820 0.0272497497498989 -0.0097499480471015
vn -1.5578262290302325 1.6922319512978694 -5.2763904740830245
v -0.0220454894006252 0.0239477697759867 -0.0097499480471015
vn -1.8151205415301030 1.4127431696402095 -5.2763825652507261
v -0.0256865005940199 0.0199925303459167 -0.0097499480471015
vn -2.0229039538239517 1.0947631135270270 -5.2763502365706119
v -0.0286267902702093 0.0154920797795057 -0.0097499480471015
vn -2.1754722877940349 0.7468263696537072 -5.2763999710658975
v -0.0307863298803568 0.0105688497424126 -0.0097499480471015
vn -2.2687769333985601 0.3785931051479297 -5.2763414245713642
v -0.0321060381829739 0.0053574438206851 -0.0097499480471015
vn -2.2687842354158474 -0.3785628062618116 -5.2763388274069785
v -0.0321060381829739 -0.0053574438206851 -0.0097499480471015
vn -2.1754637131534862 -0.7468516290455951 -5.2763998635716298
v -0.0307863298803568 -0.0105688497424126 -0.0097499480471015
vn -2.0229165600371428 -1.0947432702697271 -5.2763483112061556
v -0.0286267902702093 -0.0154920797795057 -0.0097499480471015
vn -1.8151108692608000 -1.4127467997320489 -5.2763888989344050
v -0.0256865005940199 -0.0199925303459167 -0.0097499480471015
vn -1.5578277763620640 -1.6922252114873606 -5.2763950581466501
v -0.0220454894006252 -0.0239477697759867 -0.0097499480471015
vn -1.2580165754180710 -1.9255500364036260 -5.2764190847827166
v -0.0178031306713820 -0.0272497497498989 -0.0097499480471015
vn -0.9239432094867061 -2.1063858166943219 -5.2763760898431453
v -0.0130751701071858 -0.0298084001988173 -0.0097499480471015
vn -0.5646624621588674 -2.2297790199294916 -5.2763231296850170
v -0.0079905390739441 -0.0315539799630642 -0.0097499480471015
vn -0.1899435010346325 -2.2922763359772542 -5.2763585120073087
v -0.0026879310607910 -0.0324388109147549 -0.0097499480471015
vn 0.1899503607602195 -2.2922789631367237 -5.2763547788041167
v 0.0026879310607910 -0.0324388109147549 -0.0097499480471015
vn 0.5646432931169164 -2.2297809831327493 -5.2763264150836751
v 0.0079905390739441 -0.0315539799630642 -0.0097499480471015
vn 0.9239416414149915 -2.1063749645051382 -5.2763884778849084
v 0.0130751701071858 -0.0298084001988173 -0.0097499480471015
vn 1.2580296501205839 -1.9255399967814899 -5.2764205542668741
v 0.0178031306713820 -0.0272497497498989 -0.0097499480471015
vn 1.5578262290302325 -1.6922319512978694 -5.2763904740830254
v 0.0220454894006252 -0.0239477697759867 -0.0097499480471015
vn 1.8151205415301030 -1.4127431696402095 -5.2763825652507270
v 0.0256865005940199 -0.0199925303459167 -0.0097499480471015
vn 2.0229039538239517 -1.0947631135270270 -5.2763502365706119
v 0.0286267902702093 -0.0154920797795057 -0.0097499480471015
vn 2.1754722877940349 -0.7468263696537072 -5.2763999710658975
v 0.0307863298803568 -0.0105688497424126 -0.0097499480471015
vn 2.2687769333985601 -0.3785931051479297 -5.2763414245713651
v 0.0321060381829739 -0.0053574438206851 -0.0097499480471015
vn 2.3000771822288990 0.0000178446742305 -5.2764186807002806
v 0.0325499102473259 0.0000000000000000 -0.0097499480471015
vn 0.3976074688238886 -3.1049164380111636 3.3114372208172194
v -0.0040543670766056 0.0316614508628845 0.0097499480471015
vn 0.9166218390497605 -2.9930672109492757 3.3113783001486778
v -0.0093469023704529 0.0305207297205925 0.0097499480471015
vn 1.4092442817845243 -2.7951099464223481 3.3114237066878380
v -0.0143705001100898 0.0285021606832743 0.0097499480471015
vn 1.8613734616678348 -2.5167256576406949 3.3114115472990795
v -0.0189806800335646 0.0256635490804911 0.0097499480471015
vn 2.2599274460834402 -2.1659531929334803 3.3114042379017157
v -0.0230448208749294 0.0220866203308105 0.0097499480471015
vn 2.5934556289342079 -1.7528887368821371 3.3113973698516399
v -0.0264459792524576 0.0178743600845337 0.0097499480471015
vn 2.8523988237080626 -1.2893472428970902 3.3114401268770770
v -0.0290864091366529 0.0131478896364570 0.0097499480471015
vn 3.0292807100007479 -0.7887330394763956 3.3113848930683170
v -0.0308899208903313 0.0080431103706360 0.0097499480471015
vn 3.1189975361311522 -0.2654696134816494 3.3114108920872414
v -0.0318049117922783 0.0027069440111518 0.0097499480471015
vn 3.1189975361311522 0.2654696134816494 3.3114108920872414
v -0.0318049117922783 -0.0027069440111518 0.0097499480471015
vn 3.0292807100007475 0.7887330394763955 3.3113848930683170
v -0.0308899208903313 -0.0080431103706360 0.0097499480471015
vn 2.8523988237080626 1.2893472428970900 3.3114401268770770
v -0.0290864091366529 -0.0131478896364570 0.0097499480471015
vn 2.5934556289342079 1.7528887368821373 3.3113973698516399
v -0.0264459792524576 -0.0178743600845337 0.0097499480471015
vn 2.2599274460834402 2.1659531929334799 3.3114042379017157
v -0.0230448208749294 -0.0220866203308105 0.0097499480471015
vn 1.8613734616678350 2.5167256576406949 3.3114115472990799
v -0.0189806800335646 -0.0256635490804911 0.0097499480471015
vn 1.4092442817845241 2.7951099464223477 3.3114237066878376
v -0.0143705001100898 -0.0285021606832743 0.0097499480471015
vn 0.9166218390497605 2.9930672109492762 3.3113783001486778
v -0.0093469023704529 -0.0305207297205925 0.0097499480471015
vn 0.3976074688238886 3.1049164380111636 3.3114372208172211
v -0.0040543670766056 -0.0316614508628845 0.0097499480471015
vn -0.1328673848865290 3.1274558804356838 3.3113937689196051
v 0.0013546940172091 -0.0318911597132683 0.0097499480471015
vn -0.6594713680929146 3.0600199018119909 3.3114054498429235
v 0.0067248339764774 -0.0312035009264946 0.0097499480471015
vn -1.1671292841379581 2.9045532401002241 3.3114102393323925
v 0.0119014903903008 -0.0296181999146938 0.0097499480471015
vn -1.6412312215694613 2.6655152394656567 3.3114208817510997
v 0.0167358499020338 -0.0271807909011841 0.0097499480471015
vn -2.0680980799003255 2.3498093447184298 3.3113942502932718
v 0.0210886504501104 -0.0239614192396402 0.0097499480471015
vn -2.4354558401857180 1.9665135284901230 3.3114098595208192
v 0.0248348694294691 -0.0200527291744947 0.0097499480471015
vn -2.7327700468912814 1.5266258670164090 3.3114121859047776
v 0.0278666000813246 -0.0155671797692776 0.0097499480471015
vn -2.9514689922616482 1.0428059617526479 3.3114183978522838
v 0.0300966501235962 -0.0106337601318955 0.0097499480471015
vn -3.0852541082030362 0.5289866284500478 3.3114108690795341
v 0.0314608216285706 -0.0053943991661072 0.0097499480471015
vn -3.1302781439860161 0.0000000000000000 3.3113850955309072
v 0.0319198891520500 0.0000000000000000 0.0097499480471015
vn 2.3000771822288990 -0.0000178446742305 5.2764186807002806
v 0.0325499102473259 0.0000000000000000 0.0097499480471015
vn -3.0852541082030367 -0.5289866284500478 3.3114108690795350
v 0.0314608216285706 0.0053943991661072 0.0097499480471015
vn -2.9514689922616482 -1.0428059617526477 3.3114183978522842
v 0.0300966501235962 0.0106337601318955 0.0097499480471015
vn -2.7327700468912814 -1.5266258670164090 3.3114121859047780
v 0.0278666000813246 0.0155671797692776 0.0097499480471015
vn -2.4354558401857185 -1.9665135284901232 3.3114098595208201
v 0.0248348694294691 0.0200527291744947 0.0097499480471015
vn -2.0680980799003255 -2.3498093447184294 3.3113942502932727
v 0.0210886504501104 0.0239614192396402 0.0097499480471015
vn -1.6412312215694618 -2.6655152394656572 3.3114208817510979
v 0.0167358499020338 0.0271807909011841 0.0097499480471015
vn -1.1671292841379581 -2.9045532401002245 3.3114102393323916
v 0.0119014903903008 0.0296181999146938 0.0097499480471015
vn -0.6594713680929146 -3.0600199018119909 3.3114054498429231
v 0.0067248339764774 0.0312035009264946 0.0097499480471015
vn -0.1328673848865290 -3.1274558804356838 3.3113937689196060
v 0.0013546940172091 0.0318911597132683 0.0097499480471015
vn 0.3976074688238886 3.1049164380111636 -3.3114372208172194
v -0.0040543670766056 -0.0316614508628845 -0.0097499480471015
vn 0.9166218390497605 2.9930672109492757 -3.3113783001486778
v -0.0093469023704529 -0.0305207297205925 -0.0097499480471015
vn 1.4092442817845243 2.7951099464223481 -3.3114237066878380
v -0.0143705001100898 -0.0285021606832743 -0.0097499480471015
vn 1.8613734616678348 2.5167256576406949 -3.3114115472990795
v -0.0189806800335646 -0.0256635490804911 -0.0097499480471015
vn 2.2599274460834402 2.1659531929334803 -3.3114042379017157
v -0.0230448208749294 -0.0220866203308105 -0.0097499480471015
vn 2.5934556289342074 1.7528887368821371 -3.3113973698516399
v -0.0264459792524576 -0.0178743600845337 -0.0097499480471015
vn 2.8523988237080626 1.2893472428970902 -3.3114401268770770
v -0.0290864091366529 -0.0131478896364570 -0.0097499480471015
vn 3.0292807100007479 0.7887330394763956 -3.3113848930683170
v -0.0308899208903313 -0.0080431103706360 -0.0097499480471015
vn 3.1189975361311522 0.2654696134816494 -3.3114108920872414
v -0.0318049117922783 -0.0027069440111518 -0.0097499480471015
vn -2.3000771822288990 -0.0000178446742305 -5.2764186807002789
v -0.0325499102473259 0.0000000000000000 -0.0097499480471015
vn 3.1189975361311522 -0.2654696134816494 -3.3114108920872414
v -0.0318049117922783 0.0027069440111518 -0.0097499480471015
vn 3.0292807100007475 -0.7887330394763955 -3.3113848930683170
v -0.0308899208903313 0.0080431103706360 -0.0097499480471015
vn 2.8523988237080626 -1.2893472428970900 -3.3114401268770770
v -0.0290864091366529 0.0131478896364570 -0.0097499480471015
vn 2.5934556289342079 -1.7528887368821371 -3.3113973698516399
v -0.0264459792524576 0.0178743600845337 -0.0097499480471015
vn 2.2599274460834398 -2.1659531929334799 -3.3114042379017157
v -0.0230448208749294 0.0220866203308105 -0.0097499480471015
vn 1.8613734616678350 -2.5167256576406949 -3.3114115472990799
v -0.0189806800335646 0.0256635490804911 -0.0097499480471015
vn 1.4092442817845241 -2.7951099464223477 -3.3114237066878376
v -0.0143705001100898 0.0285021606832743 -0.0097499480471015
vn 0.9166218390497606 -2.9930672109492762 -3.3113783001486778
v -0.0093469023704529 0.0305207297205925 -0.0097499480471015
vn 0.3976074688238886 -3.1049164380111636 -3.3114372208172211
v -0.0040543670766056 0.0316614508628845 -0.0097499480471015
vn -0.1328673848865291 -3.1274558804356838 -3.3113937689196051
v 0.0013546940172091 0.0318911597132683 -0.0097499480471015
vn -0.6594713680929146 -3.0600199018119909 -3.3114054498429235
v 0.0067248339764774 0.0312035009264946 -0.0097499480471015
vn -1.1671292841379581 -2.9045532401002241 -3.3114102393323925
v 0.0119014903903008 0.0296181999146938 -0.0097499480471015
vn -1.6412312215694616 -2.6655152394656567 -3.3114208817510997
v 0.0167358499020338 0.0271807909011841 -0.0097499480471015
vn -2.0680980799003255 -2.3498093447184298 -3.3113942502932718
v 0.0210886504501104 0.0239614192396402 -0.0097499480471015
vn -2.4354558401857180 -1.9665135284901227 -3.3114098595208192
v 0.0248348694294691 0.0200527291744947 -0.0097499480471015
vn -2.7327700468912814 -1.5266258670164090 -3.3114121859047776
v 0.0278666000813246 0.0155671797692776 -0.0097499480471015
vn -2.9514689922616482 -1.0428059617526477 -3.3114183978522838
v 0.0300966501235962 0.0106337601318955 -0.0097499480471015
vn -3.0852541082030362 -0.5289866284500478 -3.3114108690795341
v 0.0314608216285706 0.0053943991661072 -0.0097499480471015
vn -3.1302781439860161 -0.0000000000000000 -3.3113850955309072
v 0.0319198891520500 0.0000000000000000 -0.0097499480471015
vn -3.0852541082030367 0.5289866284500478 -3.3114108690795350
v 0.0314608216285706 -0.0053943991661072 -0.0097499480471015
vn -2.9514689922616482 1.0428059617526477 -3.3114183978522842
v 0.0300966501235962 -0.0106337601318955 -0.0097499480471015
vn -2.7327700468912814 1.5266258670164090 -3.3114121859047780
v 0.0278666000813246 -0.0155671797692776 -0.0097499480471015
vn -2.4354558401857185 1.9665135284901232 -3.3114098595208201
v 0.0248348694294691 -0.0200527291744947 -0.0097499480471015
vn -2.0680980799003255 2.3498093447184294 -3.3113942502932727
v 0.0210886504501104 -0.0239614192396402 -0.0097499480471015
vn -1.6412312215694618 2.6655152394656572 -3.3114208817510979
v 0.0167358499020338 -0.0271807909011841 -0.0097499480471015
vn -1.1671292841379581 2.9045532401002245 -3.3114102393323916
v 0.0119014903903008 -0.0296181999146938 -0.0097499480471015
vn -0.6594713680929146 3.0600199018119909 -3.3114054498429231
v 0.0067248339764774 -0.0312035009264946 -0.0097499480471015
vn -0.1328673848865290 3.1274558804356838 -3.3113937689196060
v 0.0013546940172091 -0.0318911597132683 -0.0097499480471015
# 226 vertices, 0 vertices normals

f 1//1 2//2 3//3
f 3//3 2//2 4//4
f 3//3 4//4 5//5
f 5//5 4//4 6//6
f 5//5 6//6 7//7
f 7//7 6//6 8//8
f 7//7 8//8 9//9
f 9//9 8//8 10//10
f 9//9 10//10 11//11
f 11//11 10//10 12//12
f 11//11 12//12 13//13
f 13//13 12//12 14//14
f 13//13 14//14 15//15
f 15//15 14//14 16//16
f 15//15 16//16 17//17
f 17//17 16//16 18//18
f 17//17 18//18 19//19
f 19//19 18//18 20//20
f 19//19 20//20 21//21
f 21//21 20//20 22//22
f 21//21 22//22 23//23
f 23//23 22//22 24//24
f 23//23 24//24 25//25
f 25//25 24//24 26//26
f 25//25 26//26 27//27
f 27//27 26//26 28//28
f 27//27 28//28 29//29
f 29//29 28//28 30//30
f 29//29 30//30 31//31
f 31//31 30//30 32//32
f 31//31 32//32 33//33
f 33//33 32//32 34//34
f 33//33 34//34 35//35
f 35//35 34//34 36//36
f 35//35 36//36 37//37
f 37//37 36//36 38//38
f 37//37 38//38 39//39
f 39//39 38//38 40//40
f 39//39 40//40 41//41
f 41//41 40//40 42//42
f 41//41 42//42 43//43
f 43//43 42//42 44//44
f 43//43 44//44 45//45
f 45//45 44//44 46//46
f 45//45 46//46 47//47
f 47//47 46//46 48//48
f 47//47 48//48 49//49
f 49//49 48//48 50//50
f 49//49 50//50 51//51
f 51//51 50//50 52//52
f 51//51 52//52 53//53
f 53//53 52//52 54//54
f 53//53 54//54 55//55
f 55//55 54//54 56//56
f 55//55 56//56 57//57
f 57//57 56//56 58//58
f 57//57 58//58 59//59
f 59//59 58//58 60//60
f 59//59 60//60 61//61
f 61//61 60//60 62//62
f 61//61 62//62 63//63
f 63//63 62//62 64//64
f 63//63 64//64 65//65
f 65//65 64//64 66//66
f 65//65 66//66 67//67
f 67//67 66//66 68//68
f 67//67 68//68 69//69
f 69//69 68//68 70//70
f 69//69 70//70 71//71
f 71//71 70//70 72//72
f 71//71 72//72 73//73
f 73//73 72//72 74//74
f 73//73 74//74 75//75
f 75//75 74//74 76//76
f 75//75 76//76 1//1
f 1//1 76//76 2//2
f 42//42 77//77 44//44
f 44//44 77//77 78//78
f 44//44 78//78 46//46
f 46//46 78//78 79//79
f 46//46 79//79 48//48
f 48//48 79//79 80//80
f 48//48 80//80 50//50
f 50//50 80//80 81//81
f 50//50 81//81 52//52
f 52//52 81//81 82//82
f 52//52 82//82 54//54
f 54//54 82//82 83//83
f 54//54 83//83 56//56
f 56//56 83//83 84//84
f 56//56 84//84 58//58
f 58//58 84//84 85//85
f 58//58 85//85 60//60
f 60//60 85//85 86//86
f 60//60 86//86 62//62
f 62//62 86//86 87//87
f 62//62 87//87 64//64
f 64//64 87//87 88//88
f 64//64 88//88 66//66
f 66//66 88//88 89//89
f 66//66 89//89 68//68
f 68//68 89//89 90//90
f 68//68 90//90 70//70
f 70//70 90//90 91//91
f 70//70 91//91 72//72
f 72//72 91//91 92//92
f 72//72 92//92 74//74
f 74//74 92//92 93//93
f 74//74 93//93 76//76
f 76//76 93//93 94//94
f 76//76 94//94 2//2
f 2//2 94//94 179//179
f 2//2 179//179 4//4
f 4//4 179//179 95//95
f 4//4 95//95 6//6
f 6//6 95//95 96//96
f 6//6 96//96 8//8
f 8//8 96//96 97//97
f 8//8 97//97 10//10
f 10//10 97//97 98//98
f 10//10 98//98 12//12
f 12//12 98//98 99//99
f 12//12 99//99 14//14
f 14//14 99//99 100//100
f 14//14 100//100 16//16
f 16//16 100//100 101//101
f 16//16 101//101 18//18
f 18//18 101//101 102//102
f 18//18 102//102 20//20
f 20//20 102//102 103//103
f 20//20 103//103 22//22
f 22//22 103//103 104//104
f 22//22 104//104 24//24
f 24//24 104//104 105//105
f 24//24 105//105 26//26
f 26//26 105//105 106//106
f 26//26 106//106 28//28
f 28//28 106//106 107//107
f 28//28 107//107 30//30
f 30//30 107//107 108//108
f 30//30 108//108 32//32
f 32//32 108//108 109//109
f 32//32 109//109 34//34
f 34//34 109//109 110//110
f 34//34 110//110 36//36
f 36//36 110//110 111//111
f 36//36 111//111 38//38
f 38//38 111//111 112//112
f 38//38 112//112 40//40
f 40//40 112//112 113//113
f 40//40 113//113 42//42
f 42//42 113//113 77//77
f 1//1 114//114 75//75
f 75//75 114//114 115//115
f 75//75 115//115 73//73
f 73//73 115//115 116//116
f 73//73 116//116 71//71
f 71//71 116//116 117//117
f 71//71 117//117 69//69
f 69//69 117//117 118//118
f 69//69 118//118 67//67
f 67//67 118//118 119//119
f 67//67 119//119 65//65
f 65//65 119//119 120//120
f 65//65 120//120 63//63
f 63//63 120//120 121//121
f 63//63 121//121 61//61
f 61//61 121//121 122//122
f 61//61 122//122 59//59
f 59//59 122//122 123//123
f 59//59 123//123 57//57
f 57//57 123//123 124//124
f 57//57 124//124 55//55
f 55//55 124//124 125//125
f 55//55 125//125 53//53
f 53//53 125//125 126//126
f 53//53 126//126 51//51
f 51//51 126//126 127//127
f 51//51 127//127 49//49
f 49//49 127//127 128//128
f 49//49 128//128 47//47
f 47//47 128//128 129//129
f 47//47 129//129 45//45
f 45//45 129//129 130//130
f 45//45 130//130 43//43
f 43//43 130//130 131//131
f 43//43 131//131 41//41
f 41//41 131//131 198//198
f 41//41 198//198 39//39
f 39//39 198//198 132//132
f 39//39 132//132 37//37
f 37//37 132//132 133//133
f 37//37 133//133 35//35
f 35//35 133//133 134//134
f 35//35 134//134 33//33
f 33//33 134//134 135//135
f 33//33 135//135 31//31
f 31//31 135//135 136//136
f 31//31 136//136 29//29
f 29//29 136//136 137//137
f 29//29 137//137 27//27
f 27//27 137//137 138//138
f 27//27 138//138 25//25
f 25//25 138//138 139//139
f 25//25 139//139 23//23
f 23//23 139//139 140//140
f 23//23 140//140 21//21
f 21//21 140//140 141//141
f 21//21 141//141 19//19
f 19//19 141//141 142//142
f 19//19 142//142 17//17
f 17//17 142//142 143//143
f 17//17 143//143 15//15
f 15//15 143//143 144//144
f 15//15 144//144 13//13
f 13//13 144//144 145//145
f 13//13 145//145 11//11
f 11//11 145//145 146//146
f 11//11 146//146 9//9
f 9//9 146//146 147//147
f 9//9 147//147 7//7
f 7//7 147//147 148//148
f 7//7 148//148 5//5
f 5//5 148//148 149//149
f 5//5 149//149 3//3
f 3//3 149//149 150//150
f 3//3 150//150 1//1
f 1//1 150//150 114//114
f 86//86 85//85 151//151
f 151//151 85//85 84//84
f 151//151 84//84 152//152
f 152//152 84//84 83//83
f 152//152 83//83 153//153
f 153//153 83//83 82//82
f 153//153 82//82 154//154
f 154//154 82//82 81//81
f 154//154 81//81 155//155
f 155//155 81//81 80//80
f 155//155 80//80 156//156
f 156//156 80//80 79//79
f 156//156 79//79 157//157
f 157//157 79//79 78//78
f 157//157 78//78 158//158
f 158//158 78//78 77//77
f 158//158 77//77 159//159
f 159//159 77//77 113//113
f 159//159 113//113 160//160
f 160//160 113//113 112//112
f 160//160 112//112 161//161
f 161//161 112//112 111//111
f 161//161 111//111 162//162
f 162//162 111//111 110//110
f 162//162 110//110 163//163
f 163//163 110//110 109//109
f 163//163 109//109 164//164
f 164//164 109//109 108//108
f 164//164 108//108 165//165
f 165//165 108//108 107//107
f 165//165 107//107 166//166
f 166//166 107//107 106//106
f 166//166 106//106 167//167
f 167//167 106//106 105//105
f 167//167 105//105 168//168
f 168//168 105//105 104//104
f 168//168 104//104 169//169
f 169//169 104//104 103//103
f 169//169 103//103 170//170
f 170//170 103//103 102//102
f 170//170 102//102 171//171
f 171//171 102//102 101//101
f 171//171 101//101 172//172
f 172//172 101//101 100//100
f 172//172 100//100 173//173
f 173//173 100//100 99//99
f 173//173 99//99 174//174
f 174//174 99//99 98//98
f 174//174 98//98 175//175
f 175//175 98//98 97//97
f 175//175 97//97 176//176
f 176//176 97//97 96//96
f 176//176 96//96 177//177
f 177//177 96//96 95//95
f 177//177 95//95 178//178
f 178//178 95//95 179//179
f 178//178 179//179 180//180
f 180//180 179//179 94//94
f 180//180 94//94 181//181
f 181//181 94//94 93//93
f 181//181 93//93 182//182
f 182//182 93//93 92//92
f 182//182 92//92 183//183
f 183//183 92//92 91//91
f 183//183 91//91 184//184
f 184//184 91//91 90//90
f 184//184 90//90 185//185
f 185//185 90//90 89//89
f 185//185 89//89 186//186
f 186//186 89//89 88//88
f 186//186 88//88 187//187
f 187//187 88//88 87//87
f 187//187 87//87 188//188
f 188//188 87//87 86//86
f 188//188 86//86 151//151
f 141//141 140//140 189//189
f 189//189 140//140 139//139
f 189//189 139//139 190//190
f 190//190 139//139 138//138
f 190//190 138//138 191//191
f 191//191 138//138 137//137
f 191//191 137//137 192//192
f 192//192 137//137 136//136
f 192//192 136//136 193//193
f 193//193 136//136 135//135
f 193//193 135//135 194//194
f 194//194 135//135 134//134
f 194//194 134//134 195//195
f 195//195 134//134 133//133
f 195//195 133//133 196//196
f 196//196 133//133 132//132
f 196//196 132//132 197//197
f 197//197 132//132 198//198
f 197//197 198//198 199//199
f 199//199 198//198 131//131
f 199//199 131//131 200//200
f 200//200 131//131 130//130
f 200//200 130//130 201//201
f 201//201 130//130 129//129
f 201//201 129//129 202//202
f 202//202 129//129 128//128
f 202//202 128//128 203//203
f 203//203 128//128 127//127
f 203//203 127//127 204//204
f 204//204 127//127 126//126
f 204//204 126//126 205//205
f 205//205 126//126 125//125
f 205//205 125//125 206//206
f 206//206 125//125 124//124
f 206//206 124//124 207//207
f 207//207 124//124 123//123
f 207//207 123//123 208//208
f 208//208 123//123 122//122
f 208//208 122//122 209//209
f 209//209 122//122 121//121
f 209//209 121//121 210//210
f 210//210 121//121 120//120
f 210//210 120//120 211//211
f 211//211 120//120 119//119
f 211//211 119//119 212//212
f 212//212 119//119 118//118
f 212//212 118//118 213//213
f 213//213 118//118 117//117
f 213//213 117//117 214//214
f 214//214 117//117 116//116
f 214//214 116//116 215//215
f 215//215 116//116 115//115
f 215//215 115//115 216//216
f 216//216 115//115 114//114
f 216//216 114//114 217//217
f 217//217 114//114 150//150
f 217//217 150//150 218//218
f 218//218 150//150 149//149
f 218//218 149//149 219//219
f 219//219 149//149 148//148
f 219//219 148//148 220//220
f 220//220 148//148 147//147
f 220//220 147//147 221//221
f 221//221 147//147 146//146
f 221//221 146//146 222//222
f 222//222 146//146 145//145
f 222//222 145//145 223//223
f 223//223 145//145 144//144
f 223//223 144//144 224//224
f 224//224 144//144 143//143
f 224//224 143//143 225//225
f 225//225 143//143 142//142
f 225//225 142//142 226//226
f 226//226 142//142 141//141
f 226//226 141//141 189//189
f 218//218 178//178 217//217
f 217//217 178//178 180//180
f 217//217 180//180 216//216
f 216//216 180//180 181//181
f 216//216 181//181 215//215
f 215//215 181//181 182//182
f 215//215 182//182 214//214
f 214//214 182//182 183//183
f 214//214 183//183 213//213
f 213//213 183//183 184//184
f 213//213 184//184 212//212
f 212//212 184//184 185//185
f 212//212 185//185 211//211
f 211//211 185//185 186//186
f 211//211 186//186 210//210
f 210//210 186//186 187//187
f 210//210 187//187 209//209
f 209//209 187//187 188//188
f 209//209 188//188 208//208
f 208//208 188//188 151//151
f 208//208 151//151 207//207
f 207//207 151//151 152//152
f 207//207 152//152 206//206
f 206//206 152//152 153//153
f 206//206 153//153 205//205
f 205//205 153//153 154//154
f 205//205 154//154 204//204
f 204//204 154//154 155//155
f 204//204 155//155 203//203
f 203//203 155//155 156//156
f 203//203 156//156 202//202
f 202//202 156//156 157//157
f 202//202 157//157 201//201
f 201//201 157//157 158//158
f 201//201 158//158 200//200
f 200//200 158//158 159//159
f 200//200 159//159 199//199
f 199//199 159//159 160//160
f 199//199 160//160 197//197
f 197//197 160//160 161//161
f 197//197 161//161 196//196
f 196//196 161//161 162//162
f 196//196 162//162 195//195
f 195//195 162//162 163//163
f 195//195 163//163 194//194
f 194//194 163//163 164//164
f 194//194 164//164 193//193
f 193//193 164//164 165//165
f 193//193 165//165 192//192
f 192//192 165//165 166//166
f 192//192 166//166 191//191
f 191//191 166//166 167//167
f 191//191 167//167 190//190
f 190//190 167//167 168//168
f 190//190 168//168 189//189
f 189//189 168//168 169//169
f 189//189 169//169 226//226
f 226//226 169//169 170//170
f 226//226 170//170 225//225
f 225//225 170//170 171//171
f 225//225 171//171 224//224
f 224//224 171//171 172//172
f 224//224 172//172 223//223
f 223//223 172//172 173//173
f 223//223 173//173 222//222
f 222//222 173//173 174//174
f 222//222 174//174 221//221
f 221//221 174//174 175//175
f 221//221 175//175 220//220
f 220//220 175//175 176//176
f 220//220 176//176 219//219
f 219//219 176//176 177//177
f 219//219 177//177 218//218
f 218//218 177//177 178//178
# 452 faces, 0 coords texture

# End of File
