####
#
# OBJ File Generated by Meshlab
#
####
# Object ring_big.obj
#
# Vertices: 226
# Faces: 452
#
####
vn -0.8667853086094265 5.1941891098789972 -2.1351356148113356
v -0.0073409080505371 0.0439916811883450 -0.0097499480471015
vn 0.0000038803739061 5.2660163380460725 2.1351577624753659
v 0.0000000000000000 0.0445999503135681 0.0097499480471015
vn -0.0000038803739061 5.2660163380460725 -2.1351577624753659
v 0.0000000000000000 0.0445999503135681 -0.0097499480471015
vn 0.8667853086094264 5.1941891098789972 2.1351356148113352
v 0.0073409080505371 0.0439916811883450 0.0097499480471015
vn 0.8667834828171919 5.1941963053463844 -2.1351297084406529
v 0.0073409080505371 0.0439916811883450 -0.0097499480471015
vn 1.7098840890070115 4.9807510010053511 2.1351258094784953
v 0.0144815398380160 0.0421833284199238 0.0097499480471015
vn 1.7098921750163945 4.9807526514976770 -2.1351221711667048
v 0.0144815398380160 0.0421833284199238 -0.0097499480471015
vn 2.5063545446685258 4.6313494259075707 2.1350981829361375
v 0.0212272405624390 0.0392245016992092 0.0097499480471015
vn 2.5063559943364426 4.6313463003304447 -2.1350999721312780
v 0.0212272405624390 0.0392245016992092 -0.0097499480471015
vn 3.2344949525476183 4.1556430941316966 2.1351358199087569
v 0.0273938104510307 0.0351955816149712 0.0097499480471015
vn 3.2344887446864306 4.1556508448173490 -2.1351338181853423
v 0.0273938104510307 0.0351955816149712 -0.0097499480471015
vn 3.8743605347346293 3.5666206359066823 2.1351001159829792
v 0.0328132510185242 0.0302066802978516 0.0097499480471015
vn 3.8743685899582254 3.5666160853362721 -2.1350976441459482
v 0.0328132510185242 0.0302066802978516 -0.0097499480471015
vn 4.4085695796787121 2.8802523744559272 2.1351165722983789
v 0.0373376011848450 0.0243937894701958 0.0097499480471015
vn 4.4085674113525828 2.8802432969808147 -2.1351224643568218
v 0.0373376011848450 0.0243937894701958 -0.0097499480471015
vn 4.8224719286521021 2.1153321325496770 2.1351618042194573
v 0.0408434197306633 0.0179156009107828 0.0097499480471015
vn 4.8224647653238470 2.1153459690334722 -2.1351626748815473
v 0.0408434197306633 0.0179156009107828 -0.0097499480471015
vn 5.1048941074378789 1.2927527600453192 2.1351315230195418
v 0.0432352386415005 0.0109485303983092 0.0097499480471015
vn 5.1048977248862712 1.2927398015747107 -2.1351312400684241
v 0.0432352386415005 0.0109485303983092 -0.0097499480471015
vn 5.2480192760852571 0.4348601530620765 2.1351610731943689
v 0.0444476604461670 0.0036829710006714 0.0097499480471015
vn 5.2480146654917901 0.4348662604402571 -2.1351646277794414
v 0.0444476604461670 0.0036829710006714 -0.0097499480471015
vn 5.2480146654917901 -0.4348662604402571 2.1351646277794414
v 0.0444476604461670 -0.0036829710006714 0.0097499480471015
vn 5.2480192760852571 -0.4348601530620765 -2.1351610731943689
v 0.0444476604461670 -0.0036829710006714 -0.0097499480471015
vn 5.1048977248862712 -1.2927398015747107 2.1351312400684241
v 0.0432352386415005 -0.0109485303983092 0.0097499480471015
vn 5.1048941074378789 -1.2927527600453192 -2.1351315230195418
v 0.0432352386415005 -0.0109485303983092 -0.0097499480471015
vn 4.8224647653238470 -2.1153459690334722 2.1351626748815473
v 0.0408434197306633 -0.0179156009107828 0.0097499480471015
vn 4.8224719286521021 -2.1153321325496770 -2.1351618042194573
v 0.0408434197306633 -0.0179156009107828 -0.0097499480471015
vn 4.4085674113525828 -2.8802432969808147 2.1351224643568218
v 0.0373376011848450 -0.0243937894701958 0.0097499480471015
vn 4.4085695796787121 -2.8802523744559272 -2.1351165722983789
v 0.0373376011848450 -0.0243937894701958 -0.0097499480471015
vn 3.8743685899582254 -3.5666160853362721 2.1350976441459482
v 0.0328132510185242 -0.0302066802978516 0.0097499480471015
vn 3.8743605347346293 -3.5666206359066823 -2.1351001159829792
v 0.0328132510185242 -0.0302066802978516 -0.0097499480471015
vn 3.2344887446864297 -4.1556508448173490 2.1351338181853423
v 0.0273938104510307 -0.0351955816149712 0.0097499480471015
vn 3.2344949525476183 -4.1556430941316966 -2.1351358199087569
v 0.0273938104510307 -0.0351955816149712 -0.0097499480471015
vn 2.5063559943364426 -4.6313463003304447 2.1350999721312780
v 0.0212272405624390 -0.0392245016992092 0.0097499480471015
vn 2.5063545446685263 -4.6313494259075707 -2.1350981829361375
v 0.0212272405624390 -0.0392245016992092 -0.0097499480471015
vn 1.7098921750163940 -4.9807526514976770 2.1351221711667048
v 0.0144815398380160 -0.0421833284199238 0.0097499480471015
vn 1.7098840890070115 -4.9807510010053511 -2.1351258094784953
v 0.0144815398380160 -0.0421833284199238 -0.0097499480471015
vn 0.8667834828171919 -5.1941963053463853 2.1351297084406529
v 0.0073409080505371 -0.0439916811883450 0.0097499480471015
vn 0.8667853086094264 -5.1941891098789972 -2.1351356148113352
v 0.0073409080505371 -0.0439916811883450 -0.0097499480471015
vn -0.0000038803739061 -5.2660163380460725 2.1351577624753659
v 0.0000000000000000 -0.0445999503135681 0.0097499480471015
vn -0.8667853086094263 -5.1941891098789972 2.1351356148113356
v -0.0073409080505371 -0.0439916811883450 0.0097499480471015
vn -0.8667834828171919 -5.1941963053463844 -2.1351297084406529
v -0.0073409080505371 -0.0439916811883450 -0.0097499480471015
vn -1.7098840890070115 -4.9807510010053511 2.1351258094784953
v -0.0144815398380160 -0.0421833284199238 0.0097499480471015
vn -1.7098921750163945 -4.9807526514976770 -2.1351221711667048
v -0.0144815398380160 -0.0421833284199238 -0.0097499480471015
vn -2.5063545446685258 -4.6313494259075707 2.1350981829361375
v -0.0212272405624390 -0.0392245016992092 0.0097499480471015
vn -2.5063559943364426 -4.6313463003304447 -2.1350999721312780
v -0.0212272405624390 -0.0392245016992092 -0.0097499480471015
vn -3.2344949525476183 -4.1556430941316966 2.1351358199087569
v -0.0273938104510307 -0.0351955816149712 0.0097499480471015
vn -3.2344887446864306 -4.1556508448173490 -2.1351338181853423
v -0.0273938104510307 -0.0351955816149712 -0.0097499480471015
vn -3.8743605347346293 -3.5666206359066823 2.1351001159829792
v -0.0328132510185242 -0.0302066802978516 0.0097499480471015
vn -3.8743685899582254 -3.5666160853362721 -2.1350976441459482
v -0.0328132510185242 -0.0302066802978516 -0.0097499480471015
vn -4.4085695796787121 -2.8802523744559272 2.1351165722983789
v -0.0373376011848450 -0.0243937894701958 0.0097499480471015
vn -4.4085674113525828 -2.8802432969808147 -2.1351224643568218
v -0.0373376011848450 -0.0243937894701958 -0.0097499480471015
vn -4.8224719286521021 -2.1153321325496770 2.1351618042194573
v -0.0408434197306633 -0.0179156009107828 0.0097499480471015
vn -4.8224647653238470 -2.1153459690334722 -2.1351626748815473
v -0.0408434197306633 -0.0179156009107828 -0.0097499480471015
vn -5.1048941074378789 -1.2927527600453192 2.1351315230195418
v -0.0432352386415005 -0.0109485303983092 0.0097499480471015
vn -5.1048977248862712 -1.2927398015747107 -2.1351312400684241
v -0.0432352386415005 -0.0109485303983092 -0.0097499480471015
vn -5.2480192760852571 -0.4348601530620765 2.1351610731943689
v -0.0444476604461670 -0.0036829710006714 0.0097499480471015
vn -5.2480146654917901 -0.4348662604402571 -2.1351646277794414
v -0.0444476604461670 -0.0036829710006714 -0.0097499480471015
vn -5.2480146654917901 0.4348662604402571 2.1351646277794414
v -0.0444476604461670 0.0036829710006714 0.0097499480471015
vn -5.2480192760852571 0.4348601530620765 -2.1351610731943689
v -0.0444476604461670 0.0036829710006714 -0.0097499480471015
vn -5.1048977248862712 1.2927398015747107 2.1351312400684241
v -0.0432352386415005 0.0109485303983092 0.0097499480471015
vn -5.1048941074378789 1.2927527600453192 -2.1351315230195418
v -0.0432352386415005 0.0109485303983092 -0.0097499480471015
vn -4.8224647653238470 2.1153459690334722 2.1351626748815473
v -0.0408434197306633 0.0179156009107828 0.0097499480471015
vn -4.8224719286521021 2.1153321325496770 -2.1351618042194573
v -0.0408434197306633 0.0179156009107828 -0.0097499480471015
vn -4.4085674113525828 2.8802432969808147 2.1351224643568218
v -0.0373376011848450 0.0243937894701958 0.0097499480471015
vn -4.4085695796787121 2.8802523744559272 -2.1351165722983789
v -0.0373376011848450 0.0243937894701958 -0.0097499480471015
vn -3.8743685899582254 3.5666160853362721 2.1350976441459482
v -0.0328132510185242 0.0302066802978516 0.0097499480471015
vn -3.8743605347346293 3.5666206359066823 -2.1351001159829792
v -0.0328132510185242 0.0302066802978516 -0.0097499480471015
vn -3.2344887446864297 4.1556508448173490 2.1351338181853423
v -0.0273938104510307 0.0351955816149712 0.0097499480471015
vn -3.2344949525476183 4.1556430941316966 -2.1351358199087569
v -0.0273938104510307 0.0351955816149712 -0.0097499480471015
vn -2.5063559943364426 4.6313463003304447 2.1350999721312780
v -0.0212272405624390 0.0392245016992092 0.0097499480471015
vn -2.5063545446685263 4.6313494259075707 -2.1350981829361375
v -0.0212272405624390 0.0392245016992092 -0.0097499480471015
vn -1.7098921750163940 4.9807526514976770 2.1351221711667048
v -0.0144815398380160 0.0421833284199238 0.0097499480471015
vn -1.7098840890070115 4.9807510010053511 -2.1351258094784953
v -0.0144815398380160 0.0421833284199238 -0.0097499480471015
vn -0.8667834828171919 5.1941963053463853 2.1351297084406529
v -0.0073409080505371 0.0439916811883450 0.0097499480471015
vn -0.3785921665016720 -2.2687731532391471 5.2763444553256234
v -0.0070527791976929 -0.0422655306756496 0.0115000000223517
vn -0.7468516189165103 -2.1755381014006483 5.2763255708640511
v -0.0139133296906948 -0.0405281707644463 0.0115000000223517
vn -1.0947610524071270 -2.0229480004281584 5.2763070577920326
v -0.0203943196684122 -0.0376854501664639 0.0115000000223517
vn -1.4127820784900460 -1.8151285408979601 5.2763513385900591
v -0.0263189002871513 -0.0338146016001701 0.0115000000223517
vn -1.6922912224142739 -1.5578864135401849 5.2762985574042780
v -0.0315257310867310 -0.0290214996784925 0.0115000000223517
vn -1.9256173554819440 -1.2580670349942251 5.2763287610321905
v -0.0358725115656853 -0.0234367195516825 0.0115000000223517
vn -2.1063782392672721 -0.9239318214124439 5.2763899046239651
v -0.0392407700419426 -0.0172125604003668 0.0115000000223517
vn -2.2297661703119269 -0.5646696526524547 5.2763341255995773
v -0.0415387712419033 -0.0105189597234130 0.0115000000223517
vn -2.2922511745928298 -0.1899359229672392 5.2763864975458832
v -0.0427035614848137 -0.0035384891089052 0.0115000000223517
vn -2.2922541759759500 0.1899439801135928 5.2763821963074555
v -0.0427035614848137 0.0035384891089052 0.0115000000223517
vn -2.2297698607139984 0.5646538927245854 5.2763344683982725
v -0.0415387712419033 0.0105189597234130 0.0115000000223517
vn -2.1063715438805968 0.9239493134437806 5.2763888517863622
v -0.0392407700419426 0.0172125604003668 0.0115000000223517
vn -1.9256266488837099 1.2580638897472343 5.2763216321801432
v -0.0358725115656853 0.0234367195516825 0.0115000000223517
vn -1.6922965261866065 1.5578768978579278 5.2763015487497968
v -0.0315257310867310 0.0290214996784925 0.0115000000223517
vn -1.4127716425081518 1.8151340548474801 5.2763537603067636
v -0.0263189002871513 0.0338146016001701 0.0115000000223517
vn -1.0947648516520794 2.0229480368034931 5.2763048928716936
v -0.0203943196684122 0.0376854501664639 0.0115000000223517
vn -0.7468584973117767 2.1755317835439505 5.2763299730678748
v -0.0139133296906948 0.0405281707644463 0.0115000000223517
vn -0.3785876242099399 2.2687677521762595 5.2763516019125776
v -0.0070527791976929 0.0422655306756496 0.0115000000223517
vn 0.3785921665016720 2.2687731532391471 5.2763444553256242
v 0.0070527791976929 0.0422655306756496 0.0115000000223517
vn 0.7468516189165103 2.1755381014006483 5.2763255708640528
v 0.0139133296906948 0.0405281707644463 0.0115000000223517
vn 1.0947610524071270 2.0229480004281584 5.2763070577920343
v 0.0203943196684122 0.0376854501664639 0.0115000000223517
vn 1.4127820784900460 1.8151285408979601 5.2763513385900591
v 0.0263189002871513 0.0338146016001701 0.0115000000223517
vn 1.6922912224142739 1.5578864135401849 5.2762985574042780
v 0.0315257310867310 0.0290214996784925 0.0115000000223517
vn 1.9256173554819440 1.2580670349942251 5.2763287610321914
v 0.0358725115656853 0.0234367195516825 0.0115000000223517
vn 2.1063782392672721 0.9239318214124439 5.2763899046239660
v 0.0392407700419426 0.0172125604003668 0.0115000000223517
vn 2.2297661703119269 0.5646696526524547 5.2763341255995782
v 0.0415387712419033 0.0105189597234130 0.0115000000223517
vn 2.2922511745928298 0.1899359229672392 5.2763864975458832
v 0.0427035614848137 0.0035384891089052 0.0115000000223517
vn 2.2922541759759500 -0.1899439801135928 5.2763821963074555
v 0.0427035614848137 -0.0035384891089052 0.0115000000223517
vn 2.2297698607139984 -0.5646538927245854 5.2763344683982725
v 0.0415387712419033 -0.0105189597234130 0.0115000000223517
vn 2.1063715438805968 -0.9239493134437806 5.2763888517863613
v 0.0392407700419426 -0.0172125604003668 0.0115000000223517
vn 1.9256266488837099 -1.2580638897472343 5.2763216321801441
v 0.0358725115656853 -0.0234367195516825 0.0115000000223517
vn 1.6922965261866065 -1.5578768978579278 5.2763015487497960
v 0.0315257310867310 -0.0290214996784925 0.0115000000223517
vn 1.4127716425081518 -1.8151340548474801 5.2763537603067636
v 0.0263189002871513 -0.0338146016001701 0.0115000000223517
vn 1.0947648516520794 -2.0229480368034931 5.2763048928716945
v 0.0203943196684122 -0.0376854501664639 0.0115000000223517
vn 0.7468584973117767 -2.1755317835439505 5.2763299730678739
v 0.0139133296906948 -0.0405281707644463 0.0115000000223517
vn 0.3785876242099399 -2.2687677521762595 5.2763516019125767
v 0.0070527791976929 -0.0422655306756496 0.0115000000223517
vn -0.0000046689688638 -2.3001141184225835 5.2763788153823130
v 0.0000000000000000 -0.0428498908877373 0.0115000000223517
vn -0.3785921665016720 2.2687731532391471 -5.2763444553256242
v -0.0070527791976929 0.0422655306756496 -0.0115000000223517
vn -0.7468516189165103 2.1755381014006483 -5.2763255708640528
v -0.0139133296906948 0.0405281707644463 -0.0115000000223517
vn -1.0947610524071270 2.0229480004281584 -5.2763070577920343
v -0.0203943196684122 0.0376854501664639 -0.0115000000223517
vn -1.4127820784900460 1.8151285408979601 -5.2763513385900591
v -0.0263189002871513 0.0338146016001701 -0.0115000000223517
vn -1.6922912224142739 1.5578864135401849 -5.2762985574042780
v -0.0315257310867310 0.0290214996784925 -0.0115000000223517
vn -1.9256173554819440 1.2580670349942251 -5.2763287610321914
v -0.0358725115656853 0.0234367195516825 -0.0115000000223517
vn -2.1063782392672721 0.9239318214124439 -5.2763899046239660
v -0.0392407700419426 0.0172125604003668 -0.0115000000223517
vn -2.2297661703119269 0.5646696526524547 -5.2763341255995782
v -0.0415387712419033 0.0105189597234130 -0.0115000000223517
vn -2.2922511745928298 0.1899359229672392 -5.2763864975458832
v -0.0427035614848137 0.0035384891089052 -0.0115000000223517
vn -2.2922541759759500 -0.1899439801135928 -5.2763821963074555
v -0.0427035614848137 -0.0035384891089052 -0.0115000000223517
vn -2.2297698607139984 -0.5646538927245854 -5.2763344683982725
v -0.0415387712419033 -0.0105189597234130 -0.0115000000223517
vn -2.1063715438805968 -0.9239493134437806 -5.2763888517863613
v -0.0392407700419426 -0.0172125604003668 -0.0115000000223517
vn -1.9256266488837099 -1.2580638897472343 -5.2763216321801441
v -0.0358725115656853 -0.0234367195516825 -0.0115000000223517
vn -1.6922965261866065 -1.5578768978579278 -5.2763015487497960
v -0.0315257310867310 -0.0290214996784925 -0.0115000000223517
vn -1.4127716425081518 -1.8151340548474801 -5.2763537603067636
v -0.0263189002871513 -0.0338146016001701 -0.0115000000223517
vn -1.0947648516520794 -2.0229480368034931 -5.2763048928716945
v -0.0203943196684122 -0.0376854501664639 -0.0115000000223517
vn -0.7468584973117767 -2.1755317835439505 -5.2763299730678739
v -0.0139133296906948 -0.0405281707644463 -0.0115000000223517
vn -0.3785876242099399 -2.2687677521762595 -5.2763516019125767
v -0.0070527791976929 -0.0422655306756496 -0.0115000000223517
vn 0.0000038803739061 -5.2660163380460725 -2.1351577624753659
v 0.0000000000000000 -0.0445999503135681 -0.0097499480471015
vn 0.3785921665016720 -2.2687731532391471 -5.2763444553256242
v 0.0070527791976929 -0.0422655306756496 -0.0115000000223517
vn 0.7468516189165103 -2.1755381014006483 -5.2763255708640511
v 0.0139133296906948 -0.0405281707644463 -0.0115000000223517
vn 1.0947610524071270 -2.0229480004281584 -5.2763070577920326
v 0.0203943196684122 -0.0376854501664639 -0.0115000000223517
vn 1.4127820784900460 -1.8151285408979601 -5.2763513385900591
v 0.0263189002871513 -0.0338146016001701 -0.0115000000223517
vn 1.6922912224142739 -1.5578864135401849 -5.2762985574042780
v 0.0315257310867310 -0.0290214996784925 -0.0115000000223517
vn 1.9256173554819440 -1.2580670349942251 -5.2763287610321905
v 0.0358725115656853 -0.0234367195516825 -0.0115000000223517
vn 2.1063782392672721 -0.9239318214124439 -5.2763899046239651
v 0.0392407700419426 -0.0172125604003668 -0.0115000000223517
vn 2.2297661703119269 -0.5646696526524547 -5.2763341255995773
v 0.0415387712419033 -0.0105189597234130 -0.0115000000223517
vn 2.2922511745928298 -0.1899359229672392 -5.2763864975458832
v 0.0427035614848137 -0.0035384891089052 -0.0115000000223517
vn 2.2922541759759500 0.1899439801135928 -5.2763821963074555
v 0.0427035614848137 0.0035384891089052 -0.0115000000223517
vn 2.2297698607139984 0.5646538927245854 -5.2763344683982725
v 0.0415387712419033 0.0105189597234130 -0.0115000000223517
vn 2.1063715438805968 0.9239493134437806 -5.2763888517863622
v 0.0392407700419426 0.0172125604003668 -0.0115000000223517
vn 1.9256266488837099 1.2580638897472343 -5.2763216321801432
v 0.0358725115656853 0.0234367195516825 -0.0115000000223517
vn 1.6922965261866065 1.5578768978579278 -5.2763015487497968
v 0.0315257310867310 0.0290214996784925 -0.0115000000223517
vn 1.4127716425081518 1.8151340548474801 -5.2763537603067636
v 0.0263189002871513 0.0338146016001701 -0.0115000000223517
vn 1.0947648516520794 2.0229480368034931 -5.2763048928716936
v 0.0203943196684122 0.0376854501664639 -0.0115000000223517
vn 0.7468584973117767 2.1755317835439505 -5.2763299730678748
v 0.0139133296906948 0.0405281707644463 -0.0115000000223517
vn 0.3785876242099399 2.2687677521762595 -5.2763516019125776
v 0.0070527791976929 0.0422655306756496 -0.0115000000223517
vn -0.0000046689688638 2.3001141184225835 -5.2763788153823139
v 0.0000000000000000 0.0428498908877373 -0.0115000000223517
vn 2.9930701194495999 0.9165971976324994 3.3114115916377642
v -0.0401493906974792 -0.0122956000268459 0.0115000000223517
vn 2.7951066563462224 1.4092541047148175 3.3114125636284197
v -0.0374939404428005 -0.0189040303230286 0.0115000000223517
vn 2.5167289003430211 1.8613688545809568 3.3114125413032744
v -0.0337598286569118 -0.0249686203896999 0.0115000000223517
vn 2.1659397964550959 2.2599378184891989 3.3114176075266957
v -0.0290544591844082 -0.0303149204701185 0.0115000000223517
vn 1.7528664708291917 2.5934717368611837 3.3113907848733213
v -0.0235132500529289 -0.0347890183329582 0.0115000000223517
vn 1.2893707816489228 2.8523920509285823 3.3114136754112313
v -0.0172956492751837 -0.0382624194025993 0.0115000000223517
vn 0.7887702190700630 3.0292686874194610 3.3114019074141559
v -0.0105804800987244 -0.0406350381672382 0.0115000000223517
vn 0.2654757362610449 3.1189964862474771 3.3114148468583879
v -0.0035609600599855 -0.0418387018144131 0.0115000000223517
vn -0.2654757362610450 3.1189964862474775 3.3114148468583879
v 0.0035609600599855 -0.0418387018144131 0.0115000000223517
vn -0.7887702190700628 3.0292686874194610 3.3114019074141559
v 0.0105804800987244 -0.0406350381672382 0.0115000000223517
vn -1.2893707816489228 2.8523920509285814 3.3114136754112313
v 0.0172956492751837 -0.0382624194025993 0.0115000000223517
vn -1.7528664708291917 2.5934717368611837 3.3113907848733213
v 0.0235132500529289 -0.0347890183329582 0.0115000000223517
vn -2.1659397964550959 2.2599378184891989 3.3114176075266957
v 0.0290544591844082 -0.0303149204701185 0.0115000000223517
vn -2.5167289003430211 1.8613688545809568 3.3114125413032744
v 0.0337598286569118 -0.0249686203896999 0.0115000000223517
vn -2.7951066563462224 1.4092541047148173 3.3114125636284197
v 0.0374939404428005 -0.0189040303230286 0.0115000000223517
vn -2.9930701194495999 0.9165971976324994 3.3114115916377647
v 0.0401493906974792 -0.0122956000268459 0.0115000000223517
vn -3.1049231496607699 0.3976023762446007 3.3113921034445584
v 0.0416498109698296 -0.0053333640098572 0.0115000000223517
vn -3.1274543154970349 -0.1328364005766648 3.3114153779360200
v 0.0419521294534206 0.0017819999484345 0.0115000000223517
vn -3.0600119007749922 -0.6594983428713745 3.3114215020315827
v 0.0410475097596645 0.0088464021682739 0.0115000000223517
vn -2.9045508821896044 -1.1671439778299320 3.3113855350504200
v 0.0389619395136833 0.0156562291085720 0.0115000000223517
vn -2.6655320527951210 -1.6412050437914907 3.3114164385730542
v 0.0357556901872158 0.0220156293362379 0.0115000000223517
vn -2.3498055217440945 -2.0680972730892959 3.3114197948766679
v 0.0315207205712795 0.0277417302131653 0.0115000000223517
vn -1.9664867288623431 -2.4354782425046775 3.3114054022566242
v 0.0263788700103760 0.0326697193086147 0.0115000000223517
vn -1.5266145385109429 -2.7327777687913080 3.3114030540913602
v 0.0204782392829657 0.0366578102111816 0.0115000000223517
vn -1.0428169890368131 -2.9514660652525384 3.3114115385067335
v 0.0139884902164340 0.0395913682878017 0.0115000000223517
vn -0.5290274601750596 -3.0852487513430793 3.3113987031158212
v 0.0070962901227176 0.0413859412074089 0.0115000000223517
vn 0.0000046689688638 2.3001141184225835 5.2763788153823139
v 0.0000000000000000 0.0428498908877373 0.0115000000223517
vn 0.5290274601750595 -3.0852487513430784 3.3113987031158221
v -0.0070962901227176 0.0413859412074089 0.0115000000223517
vn 1.0428169890368131 -2.9514660652525393 3.3114115385067340
v -0.0139884902164340 0.0395913682878017 0.0115000000223517
vn 1.5266145385109429 -2.7327777687913080 3.3114030540913593
v -0.0204782392829657 0.0366578102111816 0.0115000000223517
vn 1.9664867288623431 -2.4354782425046775 3.3114054022566242
v -0.0263788700103760 0.0326697193086147 0.0115000000223517
vn 2.3498055217440941 -2.0680972730892964 3.3114197948766662
v -0.0315207205712795 0.0277417302131653 0.0115000000223517
vn 2.6655320527951210 -1.6412050437914907 3.3114164385730542
v -0.0357556901872158 0.0220156293362379 0.0115000000223517
vn 2.9045508821896044 -1.1671439778299320 3.3113855350504204
v -0.0389619395136833 0.0156562291085720 0.0115000000223517
vn 3.0600119007749922 -0.6594983428713744 3.3114215020315836
v -0.0410475097596645 0.0088464021682739 0.0115000000223517
vn 3.1274543154970353 -0.1328364005766648 3.3114153779360187
v -0.0419521294534206 0.0017819999484345 0.0115000000223517
vn 3.1049231496607694 0.3976023762446005 3.3113921034445584
v -0.0416498109698296 -0.0053333640098572 0.0115000000223517
vn -2.9930701194495999 0.9165971976324992 -3.3114115916377642
v 0.0401493906974792 -0.0122956000268459 -0.0115000000223517
vn -2.7951066563462224 1.4092541047148173 -3.3114125636284197
v 0.0374939404428005 -0.0189040303230286 -0.0115000000223517
vn -2.5167289003430211 1.8613688545809568 -3.3114125413032744
v 0.0337598286569118 -0.0249686203896999 -0.0115000000223517
vn -2.1659397964550959 2.2599378184891989 -3.3114176075266957
v 0.0290544591844082 -0.0303149204701185 -0.0115000000223517
vn -1.7528664708291917 2.5934717368611837 -3.3113907848733213
v 0.0235132500529289 -0.0347890183329582 -0.0115000000223517
vn -1.2893707816489228 2.8523920509285823 -3.3114136754112313
v 0.0172956492751837 -0.0382624194025993 -0.0115000000223517
vn -0.7887702190700630 3.0292686874194610 -3.3114019074141559
v 0.0105804800987244 -0.0406350381672382 -0.0115000000223517
vn -0.2654757362610449 3.1189964862474771 -3.3114148468583879
v 0.0035609600599855 -0.0418387018144131 -0.0115000000223517
vn 0.0000046689688638 -2.3001141184225835 -5.2763788153823130
v 0.0000000000000000 -0.0428498908877373 -0.0115000000223517
vn 0.2654757362610450 3.1189964862474775 -3.3114148468583879
v -0.0035609600599855 -0.0418387018144131 -0.0115000000223517
vn 0.7887702190700628 3.0292686874194610 -3.3114019074141559
v -0.0105804800987244 -0.0406350381672382 -0.0115000000223517
vn 1.2893707816489228 2.8523920509285814 -3.3114136754112313
v -0.0172956492751837 -0.0382624194025993 -0.0115000000223517
vn 1.7528664708291917 2.5934717368611837 -3.3113907848733213
v -0.0235132500529289 -0.0347890183329582 -0.0115000000223517
vn 2.1659397964550959 2.2599378184891989 -3.3114176075266957
v -0.0290544591844082 -0.0303149204701185 -0.0115000000223517
vn 2.5167289003430211 1.8613688545809568 -3.3114125413032744
v -0.0337598286569118 -0.0249686203896999 -0.0115000000223517
vn 2.7951066563462224 1.4092541047148173 -3.3114125636284197
v -0.0374939404428005 -0.0189040303230286 -0.0115000000223517
vn 2.9930701194495999 0.9165971976324992 -3.3114115916377647
v -0.0401493906974792 -0.0122956000268459 -0.0115000000223517
vn 3.1049231496607699 0.3976023762446006 -3.3113921034445584
v -0.0416498109698296 -0.0053333640098572 -0.0115000000223517
vn 3.1274543154970349 -0.1328364005766648 -3.3114153779360200
v -0.0419521294534206 0.0017819999484345 -0.0115000000223517
vn 3.0600119007749922 -0.6594983428713745 -3.3114215020315827
v -0.0410475097596645 0.0088464021682739 -0.0115000000223517
vn 2.9045508821896044 -1.1671439778299320 -3.3113855350504200
v -0.0389619395136833 0.0156562291085720 -0.0115000000223517
vn 2.6655320527951210 -1.6412050437914907 -3.3114164385730542
v -0.0357556901872158 0.0220156293362379 -0.0115000000223517
vn 2.3498055217440945 -2.0680972730892959 -3.3114197948766679
v -0.0315207205712795 0.0277417302131653 -0.0115000000223517
vn 1.9664867288623431 -2.4354782425046775 -3.3114054022566242
v -0.0263788700103760 0.0326697193086147 -0.0115000000223517
vn 1.5266145385109429 -2.7327777687913080 -3.3114030540913602
v -0.0204782392829657 0.0366578102111816 -0.0115000000223517
vn 1.0428169890368131 -2.9514660652525384 -3.3114115385067335
v -0.0139884902164340 0.0395913682878017 -0.0115000000223517
vn 0.5290274601750596 -3.0852487513430793 -3.3113987031158212
v -0.0070962901227176 0.0413859412074089 -0.0115000000223517
vn -0.0000000000000000 -3.1302730210917531 -3.3114235529297451
v 0.0000000000000000 0.0419899784028530 -0.0115000000223517
vn -0.5290274601750595 -3.0852487513430784 -3.3113987031158221
v 0.0070962901227176 0.0413859412074089 -0.0115000000223517
vn -1.0428169890368131 -2.9514660652525393 -3.3114115385067340
v 0.0139884902164340 0.0395913682878017 -0.0115000000223517
vn -1.5266145385109429 -2.7327777687913080 -3.3114030540913593
v 0.0204782392829657 0.0366578102111816 -0.0115000000223517
vn -1.9664867288623429 -2.4354782425046775 -3.3114054022566242
v 0.0263788700103760 0.0326697193086147 -0.0115000000223517
vn -2.3498055217440945 -2.0680972730892959 -3.3114197948766662
v 0.0315207205712795 0.0277417302131653 -0.0115000000223517
vn -2.6655320527951210 -1.6412050437914907 -3.3114164385730542
v 0.0357556901872158 0.0220156293362379 -0.0115000000223517
vn -2.9045508821896044 -1.1671439778299320 -3.3113855350504204
v 0.0389619395136833 0.0156562291085720 -0.0115000000223517
vn -3.0600119007749922 -0.6594983428713745 -3.3114215020315836
v 0.0410475097596645 0.0088464021682739 -0.0115000000223517
vn -3.1274543154970353 -0.1328364005766648 -3.3114153779360187
v 0.0419521294534206 0.0017819999484345 -0.0115000000223517
vn -3.1049231496607694 0.3976023762446005 -3.3113921034445584
v 0.0416498109698296 -0.0053333640098572 -0.0115000000223517
vn 0.0000000000000000 -3.1302730210917531 3.3114235529297451
v 0.0000000000000000 0.0419899784028530 0.0115000000223517
# 226 vertices, 0 vertices normals

f 1//1 2//2 3//3
f 3//3 2//2 4//4
f 3//3 4//4 5//5
f 5//5 4//4 6//6
f 5//5 6//6 7//7
f 7//7 6//6 8//8
f 7//7 8//8 9//9
f 9//9 8//8 10//10
f 9//9 10//10 11//11
f 11//11 10//10 12//12
f 11//11 12//12 13//13
f 13//13 12//12 14//14
f 13//13 14//14 15//15
f 15//15 14//14 16//16
f 15//15 16//16 17//17
f 17//17 16//16 18//18
f 17//17 18//18 19//19
f 19//19 18//18 20//20
f 19//19 20//20 21//21
f 21//21 20//20 22//22
f 21//21 22//22 23//23
f 23//23 22//22 24//24
f 23//23 24//24 25//25
f 25//25 24//24 26//26
f 25//25 26//26 27//27
f 27//27 26//26 28//28
f 27//27 28//28 29//29
f 29//29 28//28 30//30
f 29//29 30//30 31//31
f 31//31 30//30 32//32
f 31//31 32//32 33//33
f 33//33 32//32 34//34
f 33//33 34//34 35//35
f 35//35 34//34 36//36
f 35//35 36//36 37//37
f 37//37 36//36 38//38
f 37//37 38//38 39//39
f 39//39 38//38 40//40
f 39//39 40//40 131//131
f 131//131 40//40 41//41
f 131//131 41//41 42//42
f 42//42 41//41 43//43
f 42//42 43//43 44//44
f 44//44 43//43 45//45
f 44//44 45//45 46//46
f 46//46 45//45 47//47
f 46//46 47//47 48//48
f 48//48 47//47 49//49
f 48//48 49//49 50//50
f 50//50 49//49 51//51
f 50//50 51//51 52//52
f 52//52 51//51 53//53
f 52//52 53//53 54//54
f 54//54 53//53 55//55
f 54//54 55//55 56//56
f 56//56 55//55 57//57
f 56//56 57//57 58//58
f 58//58 57//57 59//59
f 58//58 59//59 60//60
f 60//60 59//59 61//61
f 60//60 61//61 62//62
f 62//62 61//61 63//63
f 62//62 63//63 64//64
f 64//64 63//63 65//65
f 64//64 65//65 66//66
f 66//66 65//65 67//67
f 66//66 67//67 68//68
f 68//68 67//67 69//69
f 68//68 69//69 70//70
f 70//70 69//69 71//71
f 70//70 71//71 72//72
f 72//72 71//71 73//73
f 72//72 73//73 74//74
f 74//74 73//73 75//75
f 74//74 75//75 1//1
f 1//1 75//75 2//2
f 41//41 76//76 43//43
f 43//43 76//76 77//77
f 43//43 77//77 45//45
f 45//45 77//77 78//78
f 45//45 78//78 47//47
f 47//47 78//78 79//79
f 47//47 79//79 49//49
f 49//49 79//79 80//80
f 49//49 80//80 51//51
f 51//51 80//80 81//81
f 51//51 81//81 53//53
f 53//53 81//81 82//82
f 53//53 82//82 55//55
f 55//55 82//82 83//83
f 55//55 83//83 57//57
f 57//57 83//83 84//84
f 57//57 84//84 59//59
f 59//59 84//84 85//85
f 59//59 85//85 61//61
f 61//61 85//85 86//86
f 61//61 86//86 63//63
f 63//63 86//86 87//87
f 63//63 87//87 65//65
f 65//65 87//87 88//88
f 65//65 88//88 67//67
f 67//67 88//88 89//89
f 67//67 89//89 69//69
f 69//69 89//89 90//90
f 69//69 90//90 71//71
f 71//71 90//90 91//91
f 71//71 91//91 73//73
f 73//73 91//91 92//92
f 73//73 92//92 75//75
f 75//75 92//92 93//93
f 75//75 93//93 2//2
f 2//2 93//93 177//177
f 2//2 177//177 4//4
f 4//4 177//177 94//94
f 4//4 94//94 6//6
f 6//6 94//94 95//95
f 6//6 95//95 8//8
f 8//8 95//95 96//96
f 8//8 96//96 10//10
f 10//10 96//96 97//97
f 10//10 97//97 12//12
f 12//12 97//97 98//98
f 12//12 98//98 14//14
f 14//14 98//98 99//99
f 14//14 99//99 16//16
f 16//16 99//99 100//100
f 16//16 100//100 18//18
f 18//18 100//100 101//101
f 18//18 101//101 20//20
f 20//20 101//101 102//102
f 20//20 102//102 22//22
f 22//22 102//102 103//103
f 22//22 103//103 24//24
f 24//24 103//103 104//104
f 24//24 104//104 26//26
f 26//26 104//104 105//105
f 26//26 105//105 28//28
f 28//28 105//105 106//106
f 28//28 106//106 30//30
f 30//30 106//106 107//107
f 30//30 107//107 32//32
f 32//32 107//107 108//108
f 32//32 108//108 34//34
f 34//34 108//108 109//109
f 34//34 109//109 36//36
f 36//36 109//109 110//110
f 36//36 110//110 38//38
f 38//38 110//110 111//111
f 38//38 111//111 40//40
f 40//40 111//111 112//112
f 40//40 112//112 41//41
f 41//41 112//112 76//76
f 1//1 113//113 74//74
f 74//74 113//113 114//114
f 74//74 114//114 72//72
f 72//72 114//114 115//115
f 72//72 115//115 70//70
f 70//70 115//115 116//116
f 70//70 116//116 68//68
f 68//68 116//116 117//117
f 68//68 117//117 66//66
f 66//66 117//117 118//118
f 66//66 118//118 64//64
f 64//64 118//118 119//119
f 64//64 119//119 62//62
f 62//62 119//119 120//120
f 62//62 120//120 60//60
f 60//60 120//120 121//121
f 60//60 121//121 58//58
f 58//58 121//121 122//122
f 58//58 122//122 56//56
f 56//56 122//122 123//123
f 56//56 123//123 54//54
f 54//54 123//123 124//124
f 54//54 124//124 52//52
f 52//52 124//124 125//125
f 52//52 125//125 50//50
f 50//50 125//125 126//126
f 50//50 126//126 48//48
f 48//48 126//126 127//127
f 48//48 127//127 46//46
f 46//46 127//127 128//128
f 46//46 128//128 44//44
f 44//44 128//128 129//129
f 44//44 129//129 42//42
f 42//42 129//129 130//130
f 42//42 130//130 131//131
f 131//131 130//130 196//196
f 131//131 196//196 39//39
f 39//39 196//196 132//132
f 39//39 132//132 37//37
f 37//37 132//132 133//133
f 37//37 133//133 35//35
f 35//35 133//133 134//134
f 35//35 134//134 33//33
f 33//33 134//134 135//135
f 33//33 135//135 31//31
f 31//31 135//135 136//136
f 31//31 136//136 29//29
f 29//29 136//136 137//137
f 29//29 137//137 27//27
f 27//27 137//137 138//138
f 27//27 138//138 25//25
f 25//25 138//138 139//139
f 25//25 139//139 23//23
f 23//23 139//139 140//140
f 23//23 140//140 21//21
f 21//21 140//140 141//141
f 21//21 141//141 19//19
f 19//19 141//141 142//142
f 19//19 142//142 17//17
f 17//17 142//142 143//143
f 17//17 143//143 15//15
f 15//15 143//143 144//144
f 15//15 144//144 13//13
f 13//13 144//144 145//145
f 13//13 145//145 11//11
f 11//11 145//145 146//146
f 11//11 146//146 9//9
f 9//9 146//146 147//147
f 9//9 147//147 7//7
f 7//7 147//147 148//148
f 7//7 148//148 5//5
f 5//5 148//148 149//149
f 5//5 149//149 3//3
f 3//3 149//149 150//150
f 3//3 150//150 1//1
f 1//1 150//150 113//113
f 84//84 83//83 151//151
f 151//151 83//83 82//82
f 151//151 82//82 152//152
f 152//152 82//82 81//81
f 152//152 81//81 153//153
f 153//153 81//81 80//80
f 153//153 80//80 154//154
f 154//154 80//80 79//79
f 154//154 79//79 155//155
f 155//155 79//79 78//78
f 155//155 78//78 156//156
f 156//156 78//78 77//77
f 156//156 77//77 157//157
f 157//157 77//77 76//76
f 157//157 76//76 158//158
f 158//158 76//76 112//112
f 158//158 112//112 159//159
f 159//159 112//112 111//111
f 159//159 111//111 160//160
f 160//160 111//111 110//110
f 160//160 110//110 161//161
f 161//161 110//110 109//109
f 161//161 109//109 162//162
f 162//162 109//109 108//108
f 162//162 108//108 163//163
f 163//163 108//108 107//107
f 163//163 107//107 164//164
f 164//164 107//107 106//106
f 164//164 106//106 165//165
f 165//165 106//106 105//105
f 165//165 105//105 166//166
f 166//166 105//105 104//104
f 166//166 104//104 167//167
f 167//167 104//104 103//103
f 167//167 103//103 168//168
f 168//168 103//103 102//102
f 168//168 102//102 169//169
f 169//169 102//102 101//101
f 169//169 101//101 170//170
f 170//170 101//101 100//100
f 170//170 100//100 171//171
f 171//171 100//100 99//99
f 171//171 99//99 172//172
f 172//172 99//99 98//98
f 172//172 98//98 173//173
f 173//173 98//98 97//97
f 173//173 97//97 174//174
f 174//174 97//97 96//96
f 174//174 96//96 175//175
f 175//175 96//96 95//95
f 175//175 95//95 176//176
f 176//176 95//95 94//94
f 176//176 94//94 226//226
f 226//226 94//94 177//177
f 226//226 177//177 178//178
f 178//178 177//177 93//93
f 178//178 93//93 179//179
f 179//179 93//93 92//92
f 179//179 92//92 180//180
f 180//180 92//92 91//91
f 180//180 91//91 181//181
f 181//181 91//91 90//90
f 181//181 90//90 182//182
f 182//182 90//90 89//89
f 182//182 89//89 183//183
f 183//183 89//89 88//88
f 183//183 88//88 184//184
f 184//184 88//88 87//87
f 184//184 87//87 185//185
f 185//185 87//87 86//86
f 185//185 86//86 186//186
f 186//186 86//86 85//85
f 186//186 85//85 187//187
f 187//187 85//85 84//84
f 187//187 84//84 151//151
f 140//140 139//139 188//188
f 188//188 139//139 138//138
f 188//188 138//138 189//189
f 189//189 138//138 137//137
f 189//189 137//137 190//190
f 190//190 137//137 136//136
f 190//190 136//136 191//191
f 191//191 136//136 135//135
f 191//191 135//135 192//192
f 192//192 135//135 134//134
f 192//192 134//134 193//193
f 193//193 134//134 133//133
f 193//193 133//133 194//194
f 194//194 133//133 132//132
f 194//194 132//132 195//195
f 195//195 132//132 196//196
f 195//195 196//196 197//197
f 197//197 196//196 130//130
f 197//197 130//130 198//198
f 198//198 130//130 129//129
f 198//198 129//129 199//199
f 199//199 129//129 128//128
f 199//199 128//128 200//200
f 200//200 128//128 127//127
f 200//200 127//127 201//201
f 201//201 127//127 126//126
f 201//201 126//126 202//202
f 202//202 126//126 125//125
f 202//202 125//125 203//203
f 203//203 125//125 124//124
f 203//203 124//124 204//204
f 204//204 124//124 123//123
f 204//204 123//123 205//205
f 205//205 123//123 122//122
f 205//205 122//122 206//206
f 206//206 122//122 121//121
f 206//206 121//121 207//207
f 207//207 121//121 120//120
f 207//207 120//120 208//208
f 208//208 120//120 119//119
f 208//208 119//119 209//209
f 209//209 119//119 118//118
f 209//209 118//118 210//210
f 210//210 118//118 117//117
f 210//210 117//117 211//211
f 211//211 117//117 116//116
f 211//211 116//116 212//212
f 212//212 116//116 115//115
f 212//212 115//115 213//213
f 213//213 115//115 114//114
f 213//213 114//114 214//214
f 214//214 114//114 113//113
f 214//214 113//113 215//215
f 215//215 113//113 150//150
f 215//215 150//150 216//216
f 216//216 150//150 149//149
f 216//216 149//149 217//217
f 217//217 149//149 148//148
f 217//217 148//148 218//218
f 218//218 148//148 147//147
f 218//218 147//147 219//219
f 219//219 147//147 146//146
f 219//219 146//146 220//220
f 220//220 146//146 145//145
f 220//220 145//145 221//221
f 221//221 145//145 144//144
f 221//221 144//144 222//222
f 222//222 144//144 143//143
f 222//222 143//143 223//223
f 223//223 143//143 142//142
f 223//223 142//142 224//224
f 224//224 142//142 141//141
f 224//224 141//141 225//225
f 225//225 141//141 140//140
f 225//225 140//140 188//188
f 216//216 226//226 215//215
f 215//215 226//226 178//178
f 215//215 178//178 214//214
f 214//214 178//178 179//179
f 214//214 179//179 213//213
f 213//213 179//179 180//180
f 213//213 180//180 212//212
f 212//212 180//180 181//181
f 212//212 181//181 211//211
f 211//211 181//181 182//182
f 211//211 182//182 210//210
f 210//210 182//182 183//183
f 210//210 183//183 209//209
f 209//209 183//183 184//184
f 209//209 184//184 208//208
f 208//208 184//184 185//185
f 208//208 185//185 207//207
f 207//207 185//185 186//186
f 207//207 186//186 206//206
f 206//206 186//186 187//187
f 206//206 187//187 205//205
f 205//205 187//187 151//151
f 205//205 151//151 204//204
f 204//204 151//151 152//152
f 204//204 152//152 203//203
f 203//203 152//152 153//153
f 203//203 153//153 202//202
f 202//202 153//153 154//154
f 202//202 154//154 201//201
f 201//201 154//154 155//155
f 201//201 155//155 200//200
f 200//200 155//155 156//156
f 200//200 156//156 199//199
f 199//199 156//156 157//157
f 199//199 157//157 198//198
f 198//198 157//157 158//158
f 198//198 158//158 197//197
f 197//197 158//158 159//159
f 197//197 159//159 195//195
f 195//195 159//159 160//160
f 195//195 160//160 194//194
f 194//194 160//160 161//161
f 194//194 161//161 193//193
f 193//193 161//161 162//162
f 193//193 162//162 192//192
f 192//192 162//162 163//163
f 192//192 163//163 191//191
f 191//191 163//163 164//164
f 191//191 164//164 190//190
f 190//190 164//164 165//165
f 190//190 165//165 189//189
f 189//189 165//165 166//166
f 189//189 166//166 188//188
f 188//188 166//166 167//167
f 188//188 167//167 225//225
f 225//225 167//167 168//168
f 225//225 168//168 224//224
f 224//224 168//168 169//169
f 224//224 169//169 223//223
f 223//223 169//169 170//170
f 223//223 170//170 222//222
f 222//222 170//170 171//171
f 222//222 171//171 221//221
f 221//221 171//171 172//172
f 221//221 172//172 220//220
f 220//220 172//172 173//173
f 220//220 173//173 219//219
f 219//219 173//173 174//174
f 219//219 174//174 218//218
f 218//218 174//174 175//175
f 218//218 175//175 217//217
f 217//217 175//175 176//176
f 217//217 176//176 216//216
f 216//216 176//176 226//226
# 452 faces, 0 coords texture

# End of File
